<?xml version="1.0" encoding="utf-8"?>
<!-- Generator: Adobe Illustrator 25.2.1, SVG Export Plug-In . SVG Version: 6.00 Build 0)  -->
<svg version="1.1" id="Layer_1" xmlns="http://www.w3.org/2000/svg" xmlns:xlink="http://www.w3.org/1999/xlink" x="0px" y="0px"
	 viewBox="0 0 96 39" style="enable-background:new 0 0 96 39;" xml:space="preserve">
<style type="text/css">
	.st0{fill:#ABD3FF;}
	.st1{fill:#231F20;}
</style>
<path class="st0" d="M54.6,38.2c-0.4,0-0.8-0.1-1.1-0.4c-0.7-0.5-0.9-1.5-0.4-2.3c0.1-0.2,11.3-18.8,5.5-28c-1.2-1.9-2.5-3-4-3
	c-2.8-0.1-5.9,3-6.9,4.3c-0.6,0.8-1.7,0.9-2.5,0.3c-0.8-0.6-0.9-1.7-0.3-2.5c0.2-0.2,4.6-5.9,9.8-5.6c2.7,0.1,5,1.7,6.8,4.7
	c4.3,6.9,1.3,17.3-1.7,24.2c3.1-2.2,7-4.3,10.6-4.9c1-0.1,1.9,0.5,2,1.5s-0.5,1.9-1.5,2c-6.9,1.1-15.1,9.1-15.2,9.2
	C55.5,38.1,55,38.2,54.6,38.2z"/>
<path class="st1" d="M11.5,23.5c0,0.9-0.2,1.8-0.7,2.5s-1.2,1.3-2.1,1.7s-2,0.6-3.3,0.6c-1,0-1.9-0.1-2.6-0.2s-1.4-0.4-2.2-0.7v-3.6
	c0.8,0.4,1.6,0.7,2.5,0.9C3.9,24.9,4.7,25,5.4,25c0.6,0,1.1-0.1,1.4-0.3c0.3-0.2,0.4-0.5,0.4-0.8c0-0.2-0.1-0.4-0.2-0.5
	c0-0.2-0.2-0.4-0.5-0.5c-0.3-0.2-1-0.5-2.1-1c-1-0.4-1.8-0.9-2.3-1.3S1.2,19.7,1,19.2S0.6,18,0.6,17.3c0-1.4,0.5-2.5,1.6-3.2
	c1-0.8,2.5-1.2,4.3-1.2c1.6,0,3.3,0.4,4.9,1.1l-1.2,3c-1.5-0.6-2.7-1-3.8-1c-0.5,0-0.9,0.1-1.2,0.3C5,16.5,4.8,16.8,4.8,17
	c0,0.3,0.2,0.6,0.5,0.8c0.3,0.2,1.2,0.7,2.6,1.3c1.3,0.6,2.3,1.2,2.8,1.9S11.5,22.5,11.5,23.5z M20.3,28.1l-3.2-10.9H17
	c0.1,1.9,0.2,3.3,0.2,4.3V28h-3.7V13h5.6l3.3,10.7h0.1L25.6,13h5.6v15.1h-3.9v-7.7c0,0,0.1-1.4,0.1-3.1h-0.1l-3.1,10.8
	C24.2,28.1,20.3,28.1,20.3,28.1z M40.6,28.1h-4.2V16.3h-3.8V13h11.8v3.3h-3.8C40.6,16.3,40.6,28.1,40.6,28.1z M57.5,17.8
	c0,1.7-0.5,3-1.5,3.9s-2.5,1.4-4.4,1.4h-1.2v5h-4.2V13h5.4c2,0,3.5,0.4,4.4,1.2C57,15.1,57.5,16.3,57.5,17.8z M50.4,19.8h0.8
	c0.6,0,1.1-0.2,1.5-0.5s0.6-0.8,0.6-1.4c0-1-0.6-1.5-1.8-1.5h-1.1V19.8z M72,19.3h6.7v8.1c-1.8,0.6-3.8,0.9-6,0.9
	c-2.4,0-4.3-0.7-5.6-2c-1.3-1.3-2-3.3-2-5.8c0-2.4,0.7-4.3,2.2-5.7c1.4-1.4,3.5-2,6-2c1,0,1.9,0.1,2.8,0.3s1.6,0.4,2.3,0.7L77,16.9
	c-1.1-0.5-2.4-0.8-3.7-0.8c-1.2,0-2.2,0.4-2.9,1.2c-0.7,0.8-1,1.9-1,3.3s0.3,2.5,0.9,3.2s1.5,1.1,2.6,1.1c0.6,0,1.2-0.1,1.7-0.2
	v-2.4H72C72,22.3,72,19.3,72,19.3z M95.6,20.5c0,2.5-0.6,4.5-1.9,5.8s-3.2,2-5.7,2c-2.4,0-4.3-0.7-5.6-2c-1.3-1.3-2-3.3-2-5.8
	s0.7-4.4,1.9-5.8s3.2-2,5.7-2s4.4,0.7,5.6,2S95.6,18,95.6,20.5z M84.9,20.5c0,2.9,1.1,4.4,3.2,4.4c1.1,0,1.9-0.4,2.4-1.1
	s0.8-1.8,0.8-3.3s-0.3-2.6-0.8-3.3c-0.5-0.7-1.3-1.1-2.3-1.1C85.9,16.1,84.9,17.6,84.9,20.5z"/>
</svg>
